<svg width="24" height="24" viewBox="0 0 24 24" fill="none" xmlns="http://www.w3.org/2000/svg">
<path fill-rule="evenodd" clip-rule="evenodd" d="M11.1665 4.5C11.1665 4.03916 11.5398 3.66666 11.9998 3.66666C12.4598 3.66666 12.8332 4.03916 12.8332 4.5V6.16666C12.8332 6.6275 12.4598 7 11.9998 7C11.5398 7 11.1665 6.6275 11.1665 6.16666V4.5ZM17.8332 11.1667H19.4998C19.9598 11.1667 20.3332 11.5392 20.3332 12C20.3332 12.4608 19.9598 12.8333 19.4998 12.8333H17.8332C17.3732 12.8333 16.9998 12.4608 16.9998 12C16.9998 11.5392 17.3732 11.1667 17.8332 11.1667ZM6.99984 12C6.99984 11.5392 6.6265 11.1667 6.1665 11.1667H4.49984C4.03984 11.1667 3.6665 11.5392 3.6665 12C3.6665 12.4608 4.03984 12.8333 4.49984 12.8333H6.1665C6.6265 12.8333 6.99984 12.4608 6.99984 12ZM6.00542 6.21108C6.32625 5.88108 6.85292 5.87025 7.18375 6.19025L8.38292 7.34858C8.71375 7.66775 8.72292 8.19608 8.40292 8.52691C8.23959 8.69608 8.02209 8.78108 7.80375 8.78108C7.59542 8.78108 7.38709 8.70441 7.22459 8.54775L6.02542 7.38941C5.69459 7.07025 5.68542 6.54191 6.00542 6.21108ZM16.1958 8.78141C16.4042 8.78141 16.6125 8.70391 16.775 8.54808L17.9742 7.38975C18.305 7.06975 18.3142 6.54141 17.9942 6.21141C17.675 5.88141 17.1483 5.87058 16.8158 6.19058L15.6167 7.34808C15.2858 7.66808 15.2767 8.19641 15.5967 8.52641C15.76 8.69558 15.9775 8.78141 16.1958 8.78141ZM11.1665 17.8333C11.1665 17.3725 11.5398 17 11.9998 17C12.4598 17 12.8332 17.3725 12.8332 17.8333V19.5C12.8332 19.9608 12.4598 20.3333 11.9998 20.3333C11.5398 20.3333 11.1665 19.9608 11.1665 19.5V17.8333ZM16.7748 15.4522C16.444 15.133 15.9165 15.143 15.5965 15.473C15.2765 15.8038 15.2857 16.3322 15.6165 16.6513L16.8157 17.8097C16.9782 17.9663 17.1865 18.043 17.3948 18.043C17.6132 18.043 17.8307 17.958 17.994 17.7888C18.314 17.458 18.3048 16.9297 17.974 16.6105L16.7748 15.4522ZM6.02567 16.6105L7.22484 15.4522C7.5565 15.133 8.084 15.143 8.40317 15.473C8.72317 15.8038 8.714 16.3322 8.38317 16.6513L7.184 17.8097C7.0215 17.9663 6.81317 18.043 6.60484 18.043C6.3865 18.043 6.169 17.958 6.00567 17.7888C5.68567 17.458 5.69484 16.9297 6.02567 16.6105Z" fill="#ACB1B7"/>
</svg>
