<svg width="24" height="24" viewBox="0 0 24 24" fill="none" xmlns="http://www.w3.org/2000/svg">
<path fill-rule="evenodd" clip-rule="evenodd" d="M15.9979 8.00325C15.6069 7.61225 14.9749 7.61225 14.5839 8.00325L11.9981 10.589L9.41235 8.00321C9.02135 7.61221 8.38935 7.61221 7.99835 8.00321C7.60735 8.39421 7.60735 9.02621 7.99835 9.41721L10.5841 12.003L7.99833 14.5889C7.60733 14.9799 7.60733 15.6119 7.99833 16.0029C8.19333 16.1979 8.44933 16.2959 8.70533 16.2959C8.96133 16.2959 9.21733 16.1979 9.41233 16.0029L11.9981 13.417L14.5839 16.0029C14.7789 16.1979 15.0349 16.2959 15.2909 16.2959C15.5469 16.2959 15.8029 16.1979 15.9979 16.0029C16.3889 15.6119 16.3889 14.9799 15.9979 14.5889L13.4121 12.003L15.9979 9.41725C16.3889 9.02625 16.3889 8.39425 15.9979 8.00325Z" fill="#A1A7BA"/>
</svg>
