<svg width="24" height="24" viewBox="0 0 24 24" fill="none" xmlns="http://www.w3.org/2000/svg">
<path d="M13.8633 4.19825C13.255 4.06707 12.6325 3.99996 12 3.99996H11.9902C7.86341 3.99996 4.14634 6.87996 2.05854 11.709C1.98049 11.8933 1.98049 12.1066 2.05854 12.2812C2.47032 13.2336 2.94549 14.1106 3.47468 14.9049C3.80713 15.4039 4.50844 15.4449 4.93242 15.021L14.2393 5.71403C14.747 5.20639 14.5651 4.34959 13.8633 4.19825Z" fill="#ACB1B7"/>
<path fill-rule="evenodd" clip-rule="evenodd" d="M3.50003 20.4999C3.1095 20.1094 3.1095 19.4763 3.50003 19.0857L19.0858 3.5858C19.4763 3.19528 20.1095 3.19528 20.5 3.5858C20.8906 3.97632 20.8906 4.60949 20.5 5.00001L18.6535 6.83639C19.9657 8.09235 21.0899 9.73938 21.9415 11.709C22.0195 11.8933 22.0195 12.1066 21.9415 12.2812C19.8537 17.1103 16.1366 20 12 20H11.9902C10.2068 20 8.49987 19.4603 6.9679 18.4576L4.91424 20.4999C4.52372 20.8905 3.89055 20.8905 3.50003 20.4999ZM13.9424 11.5215L15.4676 10.0047C15.8063 10.592 16 11.2733 16 12C16 14.2091 14.2092 16 12 16C11.2655 16 10.5772 15.802 9.98564 15.4565L11.5109 13.9397C11.6674 13.979 11.8313 13.9999 12 13.9999C13.1046 13.9999 14 13.1045 14 11.9999C14 11.835 13.98 11.6748 13.9424 11.5215Z" fill="#ACB1B7"/>
</svg>
