<svg width="20" height="16" viewBox="0 0 20 16" fill="none" xmlns="http://www.w3.org/2000/svg">
<path d="M8.29896 7.97781C8.1351 8.00237 7.99763 8.1351 8.02219 8.29896C8.16649 9.26172 8.99703 10 10 10C11.1046 10 12 9.10457 12 8C12 6.99703 11.2617 6.16649 10.299 6.02219C10.1351 5.99763 10.0024 6.1351 9.97781 6.29896C9.84812 7.16419 9.16419 7.84812 8.29896 7.97781Z" fill="#ACB1B7"/>
<path fill-rule="evenodd" clip-rule="evenodd" d="M19.9415 7.70909C18.8976 5.29455 17.4439 3.36485 15.7366 2.04606C14.0293 0.717576 12.0683 0 10 0H9.99024C5.86341 0 2.14634 2.88 0.0585366 7.70909C-0.0195122 7.89333 -0.0195122 8.10667 0.0585366 8.28121C2.14634 13.1103 5.86341 16 9.99024 16H10C14.1366 16 17.8537 13.1103 19.9415 8.28121C20.0195 8.10667 20.0195 7.89333 19.9415 7.70909ZM14 8C14 10.2091 12.2091 12 10 12C7.79086 12 6 10.2091 6 8C6 5.79086 7.79086 4 10 4C12.2091 4 14 5.79086 14 8Z" fill="#ACB1B7"/>
</svg>
