<svg width="18" height="18" viewBox="0 0 18 18" fill="none" xmlns="http://www.w3.org/2000/svg">
<path fill-rule="evenodd" clip-rule="evenodd" d="M8.99984 6.50008C8.53984 6.50008 8.1665 6.12675 8.1665 5.66675C8.1665 5.20675 8.53984 4.83342 8.99984 4.83342C9.45984 4.83342 9.83317 5.20675 9.83317 5.66675C9.83317 6.12675 9.45984 6.50008 8.99984 6.50008ZM9.83317 12.3334C9.83317 12.7934 9.45984 13.1667 8.99984 13.1667C8.53984 13.1667 8.1665 12.7934 8.1665 12.3334V8.16675C8.1665 7.70675 8.53984 7.33341 8.99984 7.33341C9.45984 7.33341 9.83317 7.70675 9.83317 8.16675V12.3334ZM8.99984 0.666748C4.39734 0.666748 0.666504 4.39758 0.666504 9.00008C0.666504 13.6026 4.39734 17.3334 8.99984 17.3334C13.6015 17.3334 17.3332 13.6026 17.3332 9.00008C17.3332 4.39758 13.6015 0.666748 8.99984 0.666748Z" fill="#ACB1B7"/>
</svg>
